<svg class="diagram-root" style="background: #f5f6f6" xmlns="http://www.w3.org/2000/svg" xmlns:xlink="http://www.w3.org/1999/xlink"><style>.diagram-root { font-family: "Helvetica Neue", sans-serif; font-size: 12px; } .t { overflow: visible; } .t-bg { y: 40; fill: #fff;   } .th { fill: #005aa0;   } .tht { fill: #fff; font-size: 14px;  } .tf { fill: #323c46; overflow: visible; } .tf.pk { fill: #005aa0; font-weight: bold; } .tf.fk { font-weight: bold; } .ty { fill: #adb1b5; font-weight: normal; text-anchor: end; } .r { fill: transparent; stroke: #c3c3c3; stroke-width: 1; } .l { stroke: 1; } .i { fill: #c2c7ce; stroke: #c2c7ce; } .i.ix { fill: #afb3b6; stroke: #000; } .fa { fill: transparent; overflow: visible; } .fa .bg.hover { fill: #f7f7f7; } .c { cy: 12; r: 4; stroke: #d2d2dc; fill: #d2d2dc; } .hr { fill: transparent; stroke: #323c46; stroke-opacity: 0.035; stroke-width: 13; } .dc { stroke: #fa5a3c; fill: #fa5a3c; } .x { stroke: white; stroke-width: 1; } .hl .th { fill: #1b9bff; } .hl .tht {  } .fhl .bg { fill: #e7f4ff; } .fhls .bg {  } .r.hl { stroke: #1b9bff; } .dim { opacity: 0.25; }</style><g class="drawing-wrapper" transform="translate(-41, 11) scale(1,1)"><g class="rs"><path d="M 63 76 m -1, 0 a 1,1 0 1,0 2,0 a 1,1 0 1,0 -2,0 M 63 76 m -0.5, 0 a 0.5,0.5 0 1,0 1,0 a 0.5,0.5 0 1,0 -1,0  M63 76 L63 76 51 76 M 63 82 m -1, 0 a 1,1 0 1,0 2,0 a 1,1 0 1,0 -2,0 M 63 82 m -0.5, 0 a 0.5,0.5 0 1,0 1,0 a 0.5,0.5 0 1,0 -1,0  M63 82 L63 82 56 76 63 70 M 63 70 m -1, 0 a 1,1 0 1,0 2,0 a 1,1 0 1,0 -2,0 M 63 70 m -0.5, 0 a 0.5,0.5 0 1,0 1,0 a 0.5,0.5 0 1,0 -1,0  M51 76 C 1 76, -74.60000000000002 268, 177 268 M 189 268 m -1, 0 a 1,1 0 1,0 2,0 a 1,1 0 1,0 -2,0 M 189 268 m -0.5, 0 a 0.5,0.5 0 1,0 1,0 a 0.5,0.5 0 1,0 -1,0  M189 268 L189 268 177 268 M183 274 L183 274 183 262" id="h1766765093" class="r"></path><path d="M 384 124 m -1, 0 a 1,1 0 1,0 2,0 a 1,1 0 1,0 -2,0 M 384 124 m -0.5, 0 a 0.5,0.5 0 1,0 1,0 a 0.5,0.5 0 1,0 -1,0  M384 124 L384 124 372 124 M 384 130 m -1, 0 a 1,1 0 1,0 2,0 a 1,1 0 1,0 -2,0 M 384 130 m -0.5, 0 a 0.5,0.5 0 1,0 1,0 a 0.5,0.5 0 1,0 -1,0  M384 130 L384 130 377 124 384 118 M 384 118 m -1, 0 a 1,1 0 1,0 2,0 a 1,1 0 1,0 -2,0 M 384 118 m -0.5, 0 a 0.5,0.5 0 1,0 1,0 a 0.5,0.5 0 1,0 -1,0  M372 124 Q 356.26 124, 340.52 171 T 309.04 218 M 297.04 218 m -1, 0 a 1,1 0 1,0 2,0 a 1,1 0 1,0 -2,0 M 297.04 218 m -0.5, 0 a 0.5,0.5 0 1,0 1,0 a 0.5,0.5 0 1,0 -1,0  M297.04 218 L297.04 218 309.04 218 M303.04 224 L303.04 224 303.04 212" id="h1352029805" class="r"></path><path d="M 133 393 m -1, 0 a 1,1 0 1,0 2,0 a 1,1 0 1,0 -2,0 M 133 393 m -0.5, 0 a 0.5,0.5 0 1,0 1,0 a 0.5,0.5 0 1,0 -1,0  M133 393 L133 393 121 393 M 133 399 m -1, 0 a 1,1 0 1,0 2,0 a 1,1 0 1,0 -2,0 M 133 399 m -0.5, 0 a 0.5,0.5 0 1,0 1,0 a 0.5,0.5 0 1,0 -1,0  M133 399 L133 399 126 393 133 387 M 133 387 m -1, 0 a 1,1 0 1,0 2,0 a 1,1 0 1,0 -2,0 M 133 387 m -0.5, 0 a 0.5,0.5 0 1,0 1,0 a 0.5,0.5 0 1,0 -1,0  M121 393 C 82.79586991494827 393, 49.19586991494826 293, 177 293 M 189 293 m -1, 0 a 1,1 0 1,0 2,0 a 1,1 0 1,0 -2,0 M 189 293 m -0.5, 0 a 0.5,0.5 0 1,0 1,0 a 0.5,0.5 0 1,0 -1,0  M189 293 L189 293 177 293 M183 299 L183 299 183 287" id="h1005030464" class="r"></path></g><g class="hrs"></g><g class="ts"><svg width="104.02" height="100" x="63" y="19" id="h2621069812" class="t"><rect height="40" width="104.02" class="th"></rect><text x="13" y="25" class="tht">REGIONS</text><rect height="60" width="104.02" class="t-bg"></rect><text x="13" y="61" class="tf pk">id<tspan x="91.02" class="ty">serial</tspan></text><path d="M7,14A2,2 0 0,1 5,12A2,2 0 0,1 7,10A2,2 0 0,1 9,12A2,2 0 0,1 7,14M12.65,10C11.83,7.67 9.61,6 7, 6A6, 6 0 0, 0 1, 12A6, 6 0 0, 0 7, 18C9.61, 18 11.83, 16.33 12.65, 14H17V18H21V14H23V10H12.65Z" class="i pk" transform="translate(42.344218749999996, 48) scale(0.65)"></path><text x="13" y="86" class="tf">name<tspan x="91.02" class="ty">text</tspan></text></svg><svg width="154.06" height="150" x="384" y="67" id="h1765850068" class="t"><rect height="40" width="154.06" class="th"></rect><text x="13" y="25" class="tht">USERS</text><rect height="110" width="154.06" class="t-bg"></rect><text x="13" y="61" class="tf pk">id<tspan x="141.06" class="ty">serial</tspan></text><path d="M7,14A2,2 0 0,1 5,12A2,2 0 0,1 7,10A2,2 0 0,1 9,12A2,2 0 0,1 7,14M12.65,10C11.83,7.67 9.61,6 7, 6A6, 6 0 0, 0 1, 12A6, 6 0 0, 0 7, 18C9.61, 18 11.83, 16.33 12.65, 14H17V18H21V14H23V10H12.65Z" class="i pk" transform="translate(92.38421875, 48) scale(0.65)"></path><text x="13" y="86" class="tf">user_name<tspan x="141.06" class="ty">text</tspan></text><text x="13" y="111" class="tf">password<tspan x="141.06" class="ty">text</tspan></text><text x="13" y="136" class="tf">preferred_region<tspan x="141.06" class="ty">text</tspan></text></svg><svg width="108.04" height="225" x="189" y="86" id="h2461946525" class="t"><rect height="40" width="108.04" class="th"></rect><text x="13" y="25" class="tht">POSTS</text><rect height="185" width="108.04" class="t-bg"></rect><text x="13" y="61" class="tf pk">id<tspan x="95.04" class="ty">serial</tspan></text><path d="M7,14A2,2 0 0,1 5,12A2,2 0 0,1 7,10A2,2 0 0,1 9,12A2,2 0 0,1 7,14M12.65,10C11.83,7.67 9.61,6 7, 6A6, 6 0 0, 0 1, 12A6, 6 0 0, 0 7, 18C9.61, 18 11.83, 16.33 12.65, 14H17V18H21V14H23V10H12.65Z" class="i pk" transform="translate(46.364218750000006, 48) scale(0.65)"></path><text x="13" y="86" class="tf">title<tspan x="95.04" class="ty">text</tspan></text><text x="13" y="111" class="tf">text<tspan x="95.04" class="ty">text</tspan></text><text x="13" y="136" class="tf fk">user_id<tspan x="95.04" class="ty">int</tspan></text><text x="13" y="161" class="tf">location<tspan x="95.04" class="ty">text</tspan></text><text x="13" y="186" class="tf fk">region_id<tspan x="95.04" class="ty">int</tspan></text><text x="13" y="211" class="tf fk">cat_id<tspan x="95.04" class="ty">int</tspan></text></svg><svg width="104.02" height="100" x="133" y="336" id="h423302006" class="t"><rect height="40" width="104.02" class="th"></rect><text x="13" y="25" class="tht">CATEGORY</text><rect height="60" width="104.02" class="t-bg"></rect><text x="13" y="61" class="tf pk">id<tspan x="91.02" class="ty">serial</tspan></text><path d="M7,14A2,2 0 0,1 5,12A2,2 0 0,1 7,10A2,2 0 0,1 9,12A2,2 0 0,1 7,14M12.65,10C11.83,7.67 9.61,6 7, 6A6, 6 0 0, 0 1, 12A6, 6 0 0, 0 7, 18C9.61, 18 11.83, 16.33 12.65, 14H17V18H21V14H23V10H12.65Z" class="i pk" transform="translate(42.344218749999996, 48) scale(0.65)"></path><text x="13" y="86" class="tf">name<tspan x="91.02" class="ty">text</tspan></text></svg></g></g><text class="qdbd-link" x="10" y="20">www.quickdatabasediagrams.com</text></svg>