<svg class="diagram-root" style="background: #f5f6f6" xmlns="http://www.w3.org/2000/svg" xmlns:xlink="http://www.w3.org/1999/xlink"><style>.diagram-root { font-family: "Helvetica Neue", sans-serif; font-size: 12px; } .t { overflow: visible; } .t-bg { y: 40; fill: #fff;   } .th { fill: #005aa0;   } .tht { fill: #fff; font-size: 14px;  } .tf { fill: #323c46; overflow: visible; } .tf.pk { fill: #005aa0; font-weight: bold; } .tf.fk { font-weight: bold; } .ty { fill: #adb1b5; font-weight: normal; text-anchor: end; } .r { fill: transparent; stroke: #c3c3c3; stroke-width: 1; } .l { stroke: 1; } .i { fill: #c2c7ce; stroke: #c2c7ce; } .i.ix { fill: #afb3b6; stroke: #000; } .fa { fill: transparent; overflow: visible; } .fa .bg.hover { fill: #f7f7f7; } .c { cy: 12; r: 4; stroke: #d2d2dc; fill: #d2d2dc; } .hr { fill: transparent; stroke: #323c46; stroke-opacity: 0.035; stroke-width: 13; } .dc { stroke: #fa5a3c; fill: #fa5a3c; } .x { stroke: white; stroke-width: 1; } .hl .th { fill: #1b9bff; } .hl .tht {  } .fhl .bg { fill: #e7f4ff; } .fhls .bg {  } .r.hl { stroke: #1b9bff; } .dim { opacity: 0.25; }</style><g class="drawing-wrapper" transform="translate(13, 18) scale(1,1)"><g class="rs"><path d="M 142.03 87 m -1, 0 a 1,1 0 1,0 2,0 a 1,1 0 1,0 -2,0 M 142.03 87 m -0.5, 0 a 0.5,0.5 0 1,0 1,0 a 0.5,0.5 0 1,0 -1,0  M142.03 87 L142.03 87 154.03 87 M 142.03 93 m -1, 0 a 1,1 0 1,0 2,0 a 1,1 0 1,0 -2,0 M 142.03 93 m -0.5, 0 a 0.5,0.5 0 1,0 1,0 a 0.5,0.5 0 1,0 -1,0  M142.03 93 L142.03 93 149.03 87 142.03 81 M 142.03 81 m -1, 0 a 1,1 0 1,0 2,0 a 1,1 0 1,0 -2,0 M 142.03 81 m -0.5, 0 a 0.5,0.5 0 1,0 1,0 a 0.5,0.5 0 1,0 -1,0  M154.03 87 Q 175.53 87, 197.02 139 T 240 191 M 252 191 m -1, 0 a 1,1 0 1,0 2,0 a 1,1 0 1,0 -2,0 M 252 191 m -0.5, 0 a 0.5,0.5 0 1,0 1,0 a 0.5,0.5 0 1,0 -1,0  M252 191 L252 191 240 191 M246 197 L246 197 246 185" id="h3956019710" class="r"></path><path d="M 362.72 166 m -1, 0 a 1,1 0 1,0 2,0 a 1,1 0 1,0 -2,0 M 362.72 166 m -0.5, 0 a 0.5,0.5 0 1,0 1,0 a 0.5,0.5 0 1,0 -1,0  M362.72 166 L362.72 166 374.72 166 M 362.72 172 m -1, 0 a 1,1 0 1,0 2,0 a 1,1 0 1,0 -2,0 M 362.72 172 m -0.5, 0 a 0.5,0.5 0 1,0 1,0 a 0.5,0.5 0 1,0 -1,0  M362.72 172 L362.72 172 369.72 166 362.72 160 M 362.72 160 m -1, 0 a 1,1 0 1,0 2,0 a 1,1 0 1,0 -2,0 M 362.72 160 m -0.5, 0 a 0.5,0.5 0 1,0 1,0 a 0.5,0.5 0 1,0 -1,0  M374.72 166 C 424.72 166, 436.72 377, 354.72 377 M 342.72 377 m -1, 0 a 1,1 0 1,0 2,0 a 1,1 0 1,0 -2,0 M 342.72 377 m -0.5, 0 a 0.5,0.5 0 1,0 1,0 a 0.5,0.5 0 1,0 -1,0  M342.72 377 L342.72 377 354.72 377 M348.72 383 L348.72 383 348.72 371" id="h2342706004" class="r"></path><path d="M 121.05 242 m -1, 0 a 1,1 0 1,0 2,0 a 1,1 0 1,0 -2,0 M 121.05 242 m -0.5, 0 a 0.5,0.5 0 1,0 1,0 a 0.5,0.5 0 1,0 -1,0  M121.05 242 L121.05 242 133.05 242 M 121.05 248 m -1, 0 a 1,1 0 1,0 2,0 a 1,1 0 1,0 -2,0 M 121.05 248 m -0.5, 0 a 0.5,0.5 0 1,0 1,0 a 0.5,0.5 0 1,0 -1,0  M121.05 248 L121.05 248 128.05 242 121.05 236 M 121.05 236 m -1, 0 a 1,1 0 1,0 2,0 a 1,1 0 1,0 -2,0 M 121.05 236 m -0.5, 0 a 0.5,0.5 0 1,0 1,0 a 0.5,0.5 0 1,0 -1,0  M133.05 242 Q 159.79 242, 186.53 229 T 240 216 M 252 216 m -1, 0 a 1,1 0 1,0 2,0 a 1,1 0 1,0 -2,0 M 252 216 m -0.5, 0 a 0.5,0.5 0 1,0 1,0 a 0.5,0.5 0 1,0 -1,0  M252 216 L252 216 240 216 M246 222 L246 222 246 210" id="h1357188887" class="r"></path><path d="M 66 490 m -1, 0 a 1,1 0 1,0 2,0 a 1,1 0 1,0 -2,0 M 66 490 m -0.5, 0 a 0.5,0.5 0 1,0 1,0 a 0.5,0.5 0 1,0 -1,0  M66 490 L66 490 54 490 M 66 496 m -1, 0 a 1,1 0 1,0 2,0 a 1,1 0 1,0 -2,0 M 66 496 m -0.5, 0 a 0.5,0.5 0 1,0 1,0 a 0.5,0.5 0 1,0 -1,0  M66 496 L66 496 59 490 66 484 M 66 484 m -1, 0 a 1,1 0 1,0 2,0 a 1,1 0 1,0 -2,0 M 66 484 m -0.5, 0 a 0.5,0.5 0 1,0 1,0 a 0.5,0.5 0 1,0 -1,0  M54 490 C 4 490, -81.20000000000002 402, 196 402 M 208 402 m -1, 0 a 1,1 0 1,0 2,0 a 1,1 0 1,0 -2,0 M 208 402 m -0.5, 0 a 0.5,0.5 0 1,0 1,0 a 0.5,0.5 0 1,0 -1,0  M208 402 L208 402 196 402 M202 408 L202 408 202 396" id="h1783501763" class="r"></path></g><g class="hrs"></g><g class="ts"><svg width="112.03" height="125" x="30" y="30" id="h2732656845" class="t"><rect height="40" width="112.03" class="th"></rect><text x="13" y="25" class="tht">DOCTOR</text><rect height="85" width="112.03" class="t-bg"></rect><text x="13" y="61" class="tf pk">id<tspan x="99.03" class="ty">serial</tspan></text><path d="M7,14A2,2 0 0,1 5,12A2,2 0 0,1 7,10A2,2 0 0,1 9,12A2,2 0 0,1 7,14M12.65,10C11.83,7.67 9.61,6 7, 6A6, 6 0 0, 0 1, 12A6, 6 0 0, 0 7, 18C9.61, 18 11.83, 16.33 12.65, 14H17V18H21V14H23V10H12.65Z" class="i pk" transform="translate(50.35421875, 48) scale(0.65)"></path><text x="13" y="86" class="tf">name<tspan x="99.03" class="ty">text</tspan></text><text x="13" y="111" class="tf">specialty<tspan x="99.03" class="ty">text</tspan></text></svg><svg width="110.72" height="150" x="252" y="109" id="h3344018279" class="t"><rect height="40" width="110.72" class="th"></rect><text x="13" y="25" class="tht">VISITS</text><rect height="110" width="110.72" class="t-bg"></rect><text x="13" y="61" class="tf pk">id<tspan x="97.72" class="ty">serial</tspan></text><path d="M7,14A2,2 0 0,1 5,12A2,2 0 0,1 7,10A2,2 0 0,1 9,12A2,2 0 0,1 7,14M12.65,10C11.83,7.67 9.61,6 7, 6A6, 6 0 0, 0 1, 12A6, 6 0 0, 0 7, 18C9.61, 18 11.83, 16.33 12.65, 14H17V18H21V14H23V10H12.65Z" class="i pk" transform="translate(49.04421875, 48) scale(0.65)"></path><text x="13" y="86" class="tf fk">doctor_id<tspan x="97.72" class="ty">int</tspan></text><text x="13" y="111" class="tf fk">patient_id<tspan x="97.72" class="ty">int</tspan></text><text x="13" y="136" class="tf">date<tspan x="97.72" class="ty">date</tspan></text></svg><svg width="112.05" height="125" x="9" y="185" id="h1834860449" class="t"><rect height="40" width="112.05" class="th"></rect><text x="13" y="25" class="tht">PATIENT</text><rect height="85" width="112.05" class="t-bg"></rect><text x="13" y="61" class="tf pk">id<tspan x="99.05" class="ty">serial</tspan></text><path d="M7,14A2,2 0 0,1 5,12A2,2 0 0,1 7,10A2,2 0 0,1 9,12A2,2 0 0,1 7,14M12.65,10C11.83,7.67 9.61,6 7, 6A6, 6 0 0, 0 1, 12A6, 6 0 0, 0 7, 18C9.61, 18 11.83, 16.33 12.65, 14H17V18H21V14H23V10H12.65Z" class="i pk" transform="translate(50.37421875, 48) scale(0.65)"></path><text x="13" y="86" class="tf">name<tspan x="99.05" class="ty">text</tspan></text><text x="13" y="111" class="tf">birthday<tspan x="99.05" class="ty">date</tspan></text></svg><svg width="134.72" height="150" x="208" y="295" id="h3677348528" class="t"><rect height="40" width="134.72" class="th"></rect><text x="13" y="25" class="tht">DIAGNOSIS</text><rect height="110" width="134.72" class="t-bg"></rect><text x="13" y="61" class="tf pk">id<tspan x="121.72" class="ty">serial</tspan></text><path d="M7,14A2,2 0 0,1 5,12A2,2 0 0,1 7,10A2,2 0 0,1 9,12A2,2 0 0,1 7,14M12.65,10C11.83,7.67 9.61,6 7, 6A6, 6 0 0, 0 1, 12A6, 6 0 0, 0 7, 18C9.61, 18 11.83, 16.33 12.65, 14H17V18H21V14H23V10H12.65Z" class="i pk" transform="translate(73.04421875, 48) scale(0.65)"></path><text x="13" y="86" class="tf fk">visit_id<tspan x="121.72" class="ty">int</tspan></text><text x="13" y="111" class="tf fk">diagnosis_id<tspan x="121.72" class="ty">int</tspan></text><text x="13" y="136" class="tf">doctor_notes<tspan x="121.72" class="ty">text</tspan></text></svg><svg width="123.37" height="125" x="66" y="433" id="h4101438065" class="t"><rect height="40" width="123.37" class="th"></rect><text x="13" y="25" class="tht">DISEASES</text><rect height="85" width="123.37" class="t-bg"></rect><text x="13" y="61" class="tf pk">id<tspan x="110.37" class="ty">serial</tspan></text><path d="M7,14A2,2 0 0,1 5,12A2,2 0 0,1 7,10A2,2 0 0,1 9,12A2,2 0 0,1 7,14M12.65,10C11.83,7.67 9.61,6 7, 6A6, 6 0 0, 0 1, 12A6, 6 0 0, 0 7, 18C9.61, 18 11.83, 16.33 12.65, 14H17V18H21V14H23V10H12.65Z" class="i pk" transform="translate(61.694218750000005, 48) scale(0.65)"></path><text x="13" y="86" class="tf">name<tspan x="110.37" class="ty">text</tspan></text><text x="13" y="111" class="tf">description<tspan x="110.37" class="ty">text</tspan></text></svg></g></g><text class="qdbd-link" x="10" y="20">www.quickdatabasediagrams.com</text></svg>