<svg class="diagram-root" style="background: #f5f6f6" xmlns="http://www.w3.org/2000/svg" xmlns:xlink="http://www.w3.org/1999/xlink"><style>.diagram-root { font-family: "Helvetica Neue", sans-serif; font-size: 12px; } .t { overflow: visible; } .t-bg { y: 40; fill: #fff;   } .th { fill: #005aa0;   } .tht { fill: #fff; font-size: 14px;  } .tf { fill: #323c46; overflow: visible; } .tf.pk { fill: #005aa0; font-weight: bold; } .tf.fk { font-weight: bold; } .ty { fill: #adb1b5; font-weight: normal; text-anchor: end; } .r { fill: transparent; stroke: #c3c3c3; stroke-width: 1; } .l { stroke: 1; } .i { fill: #c2c7ce; stroke: #c2c7ce; } .i.ix { fill: #afb3b6; stroke: #000; } .fa { fill: transparent; overflow: visible; } .fa .bg.hover { fill: #f7f7f7; } .c { cy: 12; r: 4; stroke: #d2d2dc; fill: #d2d2dc; } .hr { fill: transparent; stroke: #323c46; stroke-opacity: 0.035; stroke-width: 13; } .dc { stroke: #fa5a3c; fill: #fa5a3c; } .x { stroke: white; stroke-width: 1; } .hl .th { fill: #1b9bff; } .hl .tht {  } .fhl .bg { fill: #e7f4ff; } .fhls .bg {  } .r.hl { stroke: #1b9bff; } .dim { opacity: 0.25; }</style><g class="drawing-wrapper" transform="translate(2, 18) scale(1,1)"><g class="rs"><path d="M 134.02 87 m -1, 0 a 1,1 0 1,0 2,0 a 1,1 0 1,0 -2,0 M 134.02 87 m -0.5, 0 a 0.5,0.5 0 1,0 1,0 a 0.5,0.5 0 1,0 -1,0  M134.02 87 L134.02 87 146.02 87 M 134.02 93 m -1, 0 a 1,1 0 1,0 2,0 a 1,1 0 1,0 -2,0 M 134.02 93 m -0.5, 0 a 0.5,0.5 0 1,0 1,0 a 0.5,0.5 0 1,0 -1,0  M134.02 93 L134.02 93 141.02 87 134.02 81 M 134.02 81 m -1, 0 a 1,1 0 1,0 2,0 a 1,1 0 1,0 -2,0 M 134.02 81 m -0.5, 0 a 0.5,0.5 0 1,0 1,0 a 0.5,0.5 0 1,0 -1,0  M146.02 87 Q 189.27 87, 232.51 297.5 T 319 508 M 331 508 m -1, 0 a 1,1 0 1,0 2,0 a 1,1 0 1,0 -2,0 M 331 508 m -0.5, 0 a 0.5,0.5 0 1,0 1,0 a 0.5,0.5 0 1,0 -1,0  M331 508 L331 508 319 508 M325 514 L325 514 325 502" id="h1158115873" class="r"></path><path d="M 330.02 76 m -1, 0 a 1,1 0 1,0 2,0 a 1,1 0 1,0 -2,0 M 330.02 76 m -0.5, 0 a 0.5,0.5 0 1,0 1,0 a 0.5,0.5 0 1,0 -1,0  M330.02 76 L330.02 76 342.02 76 M 330.02 82 m -1, 0 a 1,1 0 1,0 2,0 a 1,1 0 1,0 -2,0 M 330.02 82 m -0.5, 0 a 0.5,0.5 0 1,0 1,0 a 0.5,0.5 0 1,0 -1,0  M330.02 82 L330.02 82 337.02 76 330.02 70 M 330.02 70 m -1, 0 a 1,1 0 1,0 2,0 a 1,1 0 1,0 -2,0 M 330.02 70 m -0.5, 0 a 0.5,0.5 0 1,0 1,0 a 0.5,0.5 0 1,0 -1,0  M342.02 76 Q 357.52 76, 373.01 109 T 404 142 M 416 142 m -1, 0 a 1,1 0 1,0 2,0 a 1,1 0 1,0 -2,0 M 416 142 m -0.5, 0 a 0.5,0.5 0 1,0 1,0 a 0.5,0.5 0 1,0 -1,0  M416 142 L416 142 404 142 M410 148 L410 148 410 136" id="h4077969557" class="r"></path><path d="M 416 167 m -1, 0 a 1,1 0 1,0 2,0 a 1,1 0 1,0 -2,0 M 416 167 m -0.5, 0 a 0.5,0.5 0 1,0 1,0 a 0.5,0.5 0 1,0 -1,0  M416 167 L416 167 404 167 M 416 173 m -1, 0 a 1,1 0 1,0 2,0 a 1,1 0 1,0 -2,0 M 416 173 m -0.5, 0 a 0.5,0.5 0 1,0 1,0 a 0.5,0.5 0 1,0 -1,0  M416 173 L416 173 409 167 416 161 M 416 161 m -1, 0 a 1,1 0 1,0 2,0 a 1,1 0 1,0 -2,0 M 416 161 m -0.5, 0 a 0.5,0.5 0 1,0 1,0 a 0.5,0.5 0 1,0 -1,0  M404 167 Q 356.19 167, 308.37 194.5 T 212.73 222 M 200.73 222 m -1, 0 a 1,1 0 1,0 2,0 a 1,1 0 1,0 -2,0 M 200.73 222 m -0.5, 0 a 0.5,0.5 0 1,0 1,0 a 0.5,0.5 0 1,0 -1,0  M200.73 222 L200.73 222 212.73 222 M206.73 228 L206.73 228 206.73 216" id="h2980406534" class="r"></path><path d="M 200.73 222 m -1, 0 a 1,1 0 1,0 2,0 a 1,1 0 1,0 -2,0 M 200.73 222 m -0.5, 0 a 0.5,0.5 0 1,0 1,0 a 0.5,0.5 0 1,0 -1,0  M200.73 222 L200.73 222 212.73 222 M 200.73 228 m -1, 0 a 1,1 0 1,0 2,0 a 1,1 0 1,0 -2,0 M 200.73 228 m -0.5, 0 a 0.5,0.5 0 1,0 1,0 a 0.5,0.5 0 1,0 -1,0  M200.73 228 L200.73 228 207.73 222 200.73 216 M 200.73 216 m -1, 0 a 1,1 0 1,0 2,0 a 1,1 0 1,0 -2,0 M 200.73 216 m -0.5, 0 a 0.5,0.5 0 1,0 1,0 a 0.5,0.5 0 1,0 -1,0  M212.73 222 Q 239.3 222, 265.87 352.5 T 319 483 M 331 483 m -1, 0 a 1,1 0 1,0 2,0 a 1,1 0 1,0 -2,0 M 331 483 m -0.5, 0 a 0.5,0.5 0 1,0 1,0 a 0.5,0.5 0 1,0 -1,0  M331 483 L331 483 319 483 M325 489 L325 489 325 477" id="h3988679097" class="r"></path><path d="M 50 247 m -1, 0 a 1,1 0 1,0 2,0 a 1,1 0 1,0 -2,0 M 50 247 m -0.5, 0 a 0.5,0.5 0 1,0 1,0 a 0.5,0.5 0 1,0 -1,0  M50 247 L50 247 38 247 M 50 253 m -1, 0 a 1,1 0 1,0 2,0 a 1,1 0 1,0 -2,0 M 50 253 m -0.5, 0 a 0.5,0.5 0 1,0 1,0 a 0.5,0.5 0 1,0 -1,0  M50 253 L50 253 43 247 50 241 M 50 241 m -1, 0 a 1,1 0 1,0 2,0 a 1,1 0 1,0 -2,0 M 50 241 m -0.5, 0 a 0.5,0.5 0 1,0 1,0 a 0.5,0.5 0 1,0 -1,0  M38 247 C -44 247, -32 87, 18 87 M 30 87 m -1, 0 a 1,1 0 1,0 2,0 a 1,1 0 1,0 -2,0 M 30 87 m -0.5, 0 a 0.5,0.5 0 1,0 1,0 a 0.5,0.5 0 1,0 -1,0  M30 87 L30 87 18 87 M24 93 L24 93 24 81" id="h166119692" class="r"></path><path d="M 50 272 m -1, 0 a 1,1 0 1,0 2,0 a 1,1 0 1,0 -2,0 M 50 272 m -0.5, 0 a 0.5,0.5 0 1,0 1,0 a 0.5,0.5 0 1,0 -1,0  M50 272 L50 272 38 272 M 50 278 m -1, 0 a 1,1 0 1,0 2,0 a 1,1 0 1,0 -2,0 M 50 278 m -0.5, 0 a 0.5,0.5 0 1,0 1,0 a 0.5,0.5 0 1,0 -1,0  M50 278 L50 278 43 272 50 266 M 50 266 m -1, 0 a 1,1 0 1,0 2,0 a 1,1 0 1,0 -2,0 M 50 266 m -0.5, 0 a 0.5,0.5 0 1,0 1,0 a 0.5,0.5 0 1,0 -1,0  M38 272 C -44 272, -32 87, 18 87 M 30 87 m -1, 0 a 1,1 0 1,0 2,0 a 1,1 0 1,0 -2,0 M 30 87 m -0.5, 0 a 0.5,0.5 0 1,0 1,0 a 0.5,0.5 0 1,0 -1,0  M30 87 L30 87 18 87 M24 93 L24 93 24 81" id="h2571056848" class="r"></path><path d="M 200.73 297 m -1, 0 a 1,1 0 1,0 2,0 a 1,1 0 1,0 -2,0 M 200.73 297 m -0.5, 0 a 0.5,0.5 0 1,0 1,0 a 0.5,0.5 0 1,0 -1,0  M200.73 297 L200.73 297 212.73 297 M 200.73 303 m -1, 0 a 1,1 0 1,0 2,0 a 1,1 0 1,0 -2,0 M 200.73 303 m -0.5, 0 a 0.5,0.5 0 1,0 1,0 a 0.5,0.5 0 1,0 -1,0  M200.73 303 L200.73 303 207.73 297 200.73 291 M 200.73 291 m -1, 0 a 1,1 0 1,0 2,0 a 1,1 0 1,0 -2,0 M 200.73 291 m -0.5, 0 a 0.5,0.5 0 1,0 1,0 a 0.5,0.5 0 1,0 -1,0  M212.73 297 Q 245.05 297, 277.37 307 T 342 317 M 354 317 m -1, 0 a 1,1 0 1,0 2,0 a 1,1 0 1,0 -2,0 M 354 317 m -0.5, 0 a 0.5,0.5 0 1,0 1,0 a 0.5,0.5 0 1,0 -1,0  M354 317 L354 317 342 317 M348 323 L348 323 348 311" id="h759060974" class="r"></path><path d="M 200.73 322 m -1, 0 a 1,1 0 1,0 2,0 a 1,1 0 1,0 -2,0 M 200.73 322 m -0.5, 0 a 0.5,0.5 0 1,0 1,0 a 0.5,0.5 0 1,0 -1,0  M200.73 322 L200.73 322 212.73 322 M 200.73 328 m -1, 0 a 1,1 0 1,0 2,0 a 1,1 0 1,0 -2,0 M 200.73 328 m -0.5, 0 a 0.5,0.5 0 1,0 1,0 a 0.5,0.5 0 1,0 -1,0  M200.73 328 L200.73 328 207.73 322 200.73 316 M 200.73 316 m -1, 0 a 1,1 0 1,0 2,0 a 1,1 0 1,0 -2,0 M 200.73 316 m -0.5, 0 a 0.5,0.5 0 1,0 1,0 a 0.5,0.5 0 1,0 -1,0  M212.73 322 Q 245.05 322, 277.37 319.5 T 342 317 M 354 317 m -1, 0 a 1,1 0 1,0 2,0 a 1,1 0 1,0 -2,0 M 354 317 m -0.5, 0 a 0.5,0.5 0 1,0 1,0 a 0.5,0.5 0 1,0 -1,0  M354 317 L354 317 342 317 M348 323 L348 323 348 311" id="h2534145063" class="r"></path><path d="M 43 467 m -1, 0 a 1,1 0 1,0 2,0 a 1,1 0 1,0 -2,0 M 43 467 m -0.5, 0 a 0.5,0.5 0 1,0 1,0 a 0.5,0.5 0 1,0 -1,0  M43 467 L43 467 31 467 M 43 473 m -1, 0 a 1,1 0 1,0 2,0 a 1,1 0 1,0 -2,0 M 43 473 m -0.5, 0 a 0.5,0.5 0 1,0 1,0 a 0.5,0.5 0 1,0 -1,0  M43 473 L43 473 36 467 43 461 M 43 461 m -1, 0 a 1,1 0 1,0 2,0 a 1,1 0 1,0 -2,0 M 43 461 m -0.5, 0 a 0.5,0.5 0 1,0 1,0 a 0.5,0.5 0 1,0 -1,0  M31 467 C -9.067997759364573 467, -13.267997759364574 347, 38 347 M 50 347 m -1, 0 a 1,1 0 1,0 2,0 a 1,1 0 1,0 -2,0 M 50 347 m -0.5, 0 a 0.5,0.5 0 1,0 1,0 a 0.5,0.5 0 1,0 -1,0  M50 347 L50 347 38 347 M44 353 L44 353 44 341" id="h1693979961" class="r"></path></g><g class="hrs"></g><g class="ts"><svg width="104.02" height="100" x="30" y="30" id="h3710425793" class="t"><rect height="40" width="104.02" class="th"></rect><text x="13" y="25" class="tht">TEAMS</text><rect height="60" width="104.02" class="t-bg"></rect><text x="13" y="61" class="tf pk">id<tspan x="91.02" class="ty">serial</tspan></text><path d="M7,14A2,2 0 0,1 5,12A2,2 0 0,1 7,10A2,2 0 0,1 9,12A2,2 0 0,1 7,14M12.65,10C11.83,7.67 9.61,6 7, 6A6, 6 0 0, 0 1, 12A6, 6 0 0, 0 7, 18C9.61, 18 11.83, 16.33 12.65, 14H17V18H21V14H23V10H12.65Z" class="i pk" transform="translate(42.344218749999996, 48) scale(0.65)"></path><text x="13" y="86" class="tf">name<tspan x="91.02" class="ty">text</tspan></text></svg><svg width="104.02" height="125" x="226" y="19" id="h3116282548" class="t"><rect height="40" width="104.02" class="th"></rect><text x="13" y="25" class="tht">PLAYERS</text><rect height="85" width="104.02" class="t-bg"></rect><text x="13" y="61" class="tf pk">id<tspan x="91.02" class="ty">serial</tspan></text><path d="M7,14A2,2 0 0,1 5,12A2,2 0 0,1 7,10A2,2 0 0,1 9,12A2,2 0 0,1 7,14M12.65,10C11.83,7.67 9.61,6 7, 6A6, 6 0 0, 0 1, 12A6, 6 0 0, 0 7, 18C9.61, 18 11.83, 16.33 12.65, 14H17V18H21V14H23V10H12.65Z" class="i pk" transform="translate(42.344218749999996, 48) scale(0.65)"></path><text x="13" y="86" class="tf">name<tspan x="91.02" class="ty">text</tspan></text><text x="13" y="111" class="tf">team_id</text></svg><svg width="104.02" height="125" x="416" y="60" id="h2729018540" class="t"><rect height="40" width="104.02" class="th"></rect><text x="13" y="25" class="tht">GOALS</text><rect height="85" width="104.02" class="t-bg"></rect><text x="13" y="61" class="tf pk">id<tspan x="91.02" class="ty">serial</tspan></text><path d="M7,14A2,2 0 0,1 5,12A2,2 0 0,1 7,10A2,2 0 0,1 9,12A2,2 0 0,1 7,14M12.65,10C11.83,7.67 9.61,6 7, 6A6, 6 0 0, 0 1, 12A6, 6 0 0, 0 7, 18C9.61, 18 11.83, 16.33 12.65, 14H17V18H21V14H23V10H12.65Z" class="i pk" transform="translate(42.344218749999996, 48) scale(0.65)"></path><text x="13" y="86" class="tf fk">player_id</text><text x="13" y="111" class="tf fk">match_id</text></svg><svg width="104.02" height="100" x="354" y="260" id="h2779406633" class="t"><rect height="40" width="104.02" class="th"></rect><text x="13" y="25" class="tht">REFEREES</text><rect height="60" width="104.02" class="t-bg"></rect><text x="13" y="61" class="tf pk">id<tspan x="91.02" class="ty">serial</tspan></text><path d="M7,14A2,2 0 0,1 5,12A2,2 0 0,1 7,10A2,2 0 0,1 9,12A2,2 0 0,1 7,14M12.65,10C11.83,7.67 9.61,6 7, 6A6, 6 0 0, 0 1, 12A6, 6 0 0, 0 7, 18C9.61, 18 11.83, 16.33 12.65, 14H17V18H21V14H23V10H12.65Z" class="i pk" transform="translate(42.344218749999996, 48) scale(0.65)"></path><text x="13" y="86" class="tf">name<tspan x="91.02" class="ty">text</tspan></text></svg><svg width="122.72" height="125" x="43" y="410" id="h2562060705" class="t"><rect height="40" width="122.72" class="th"></rect><text x="13" y="25" class="tht">SEASON</text><rect height="85" width="122.72" class="t-bg"></rect><text x="13" y="61" class="tf pk">id<tspan x="109.72" class="ty">serial</tspan></text><path d="M7,14A2,2 0 0,1 5,12A2,2 0 0,1 7,10A2,2 0 0,1 9,12A2,2 0 0,1 7,14M12.65,10C11.83,7.67 9.61,6 7, 6A6, 6 0 0, 0 1, 12A6, 6 0 0, 0 7, 18C9.61, 18 11.83, 16.33 12.65, 14H17V18H21V14H23V10H12.65Z" class="i pk" transform="translate(61.04421875, 48) scale(0.65)"></path><text x="13" y="86" class="tf">start_date<tspan x="109.72" class="ty">date</tspan></text><text x="13" y="111" class="tf">end_date<tspan x="109.72" class="ty">date</tspan></text></svg><svg width="107.37" height="150" x="331" y="401" id="h43848280" class="t"><rect height="40" width="107.37" class="th"></rect><text x="13" y="25" class="tht">RESULTS</text><rect height="110" width="107.37" class="t-bg"></rect><text x="13" y="61" class="tf pk">id<tspan x="94.37" class="ty">serial</tspan></text><path d="M7,14A2,2 0 0,1 5,12A2,2 0 0,1 7,10A2,2 0 0,1 9,12A2,2 0 0,1 7,14M12.65,10C11.83,7.67 9.61,6 7, 6A6, 6 0 0, 0 1, 12A6, 6 0 0, 0 7, 18C9.61, 18 11.83, 16.33 12.65, 14H17V18H21V14H23V10H12.65Z" class="i pk" transform="translate(45.694218750000005, 48) scale(0.65)"></path><text x="13" y="86" class="tf fk">match_id<tspan x="94.37" class="ty">int</tspan></text><text x="13" y="111" class="tf fk">team_id<tspan x="94.37" class="ty">int</tspan></text><text x="13" y="136" class="tf">results<tspan x="94.37" class="ty">text</tspan></text></svg><svg width="150.73" height="200" x="50" y="165" id="h1907958759" class="t"><rect height="40" width="150.73" class="th"></rect><text x="13" y="25" class="tht">MATCHES</text><rect height="160" width="150.73" class="t-bg"></rect><text x="13" y="61" class="tf pk">id<tspan x="137.73" class="ty">serial</tspan></text><path d="M7,14A2,2 0 0,1 5,12A2,2 0 0,1 7,10A2,2 0 0,1 9,12A2,2 0 0,1 7,14M12.65,10C11.83,7.67 9.61,6 7, 6A6, 6 0 0, 0 1, 12A6, 6 0 0, 0 7, 18C9.61, 18 11.83, 16.33 12.65, 14H17V18H21V14H23V10H12.65Z" class="i pk" transform="translate(89.05421874999999, 48) scale(0.65)"></path><text x="13" y="86" class="tf fk">away_team_id<tspan x="137.73" class="ty">int</tspan></text><text x="13" y="111" class="tf fk">home_team_id<tspan x="137.73" class="ty">int</tspan></text><text x="13" y="136" class="tf fk">head_ref_id<tspan x="137.73" class="ty">int</tspan></text><text x="13" y="161" class="tf fk">secondary_ref_id<tspan x="137.73" class="ty">int</tspan></text><text x="13" y="186" class="tf fk">season_id<tspan x="137.73" class="ty">int</tspan></text></svg></g></g><text class="qdbd-link" x="10" y="20">www.quickdatabasediagrams.com</text></svg>